<svg width="839" height="839" xmlns="http://www.w3.org/2000/svg" xmlns:xlink="http://www.w3.org/1999/xlink" xml:space="preserve" overflow="hidden"><defs><filter id="fx0" x="-10%" y="-10%" width="120%" height="120%" filterUnits="userSpaceOnUse" primitiveUnits="userSpaceOnUse"><feComponentTransfer color-interpolation-filters="sRGB"><feFuncR type="discrete" tableValues="0 0"/><feFuncG type="discrete" tableValues="0 0"/><feFuncB type="discrete" tableValues="0 0"/><feFuncA type="linear" slope="0.411765" intercept="0"/></feComponentTransfer><feGaussianBlur stdDeviation="7.63889 7.63889"/></filter><filter id="fx1" x="-10%" y="-10%" width="120%" height="120%" filterUnits="userSpaceOnUse" primitiveUnits="userSpaceOnUse"><feComponentTransfer color-interpolation-filters="sRGB"><feFuncR type="discrete" tableValues="0 0"/><feFuncG type="discrete" tableValues="0 0"/><feFuncB type="discrete" tableValues="0 0"/><feFuncA type="linear" slope="0.411765" intercept="0"/></feComponentTransfer><feGaussianBlur stdDeviation="7.63889 7.63889"/></filter><radialGradient cx="1856434" cy="1947949" r="2690884" gradientUnits="userSpaceOnUse" spreadMethod="pad" id="fill2" gradientTransform="matrix(0.000360892 0 0 0.000360892 725 713)"><stop offset="0" stop-color="#13501B"/><stop offset="0.09" stop-color="#13501B"/><stop offset="0.75" stop-color="#96DCF8"/><stop offset="1" stop-color="#96DCF8"/></radialGradient><radialGradient cx="2194560" cy="2194560" r="3103576" gradientUnits="userSpaceOnUse" spreadMethod="pad" id="fill3" gradientTransform="matrix(0.000360892 0 0 0.000360892 664 662)"><stop offset="0" stop-color="#084F6A"/><stop offset="0.75" stop-color="#0B3041"/><stop offset="1" stop-color="#0B3041"/></radialGradient></defs><g transform="translate(-650 -648)"><g filter="url(#fx0)" transform="translate(711 699)"><g><path d="M23.7227 67.847C23.7227 43.4778 43.4778 23.7227 67.847 23.7227L649.571 23.7227C673.941 23.7227 693.696 43.4778 693.696 67.847L693.696 682.598C693.696 706.967 673.941 726.723 649.571 726.723L67.847 726.723C43.4778 726.723 23.7227 706.967 23.7227 682.598Z" fill="#FF0000" fill-rule="evenodd"/></g></g><path d="M725 757.124C725 732.755 744.755 713 769.124 713L1350.85 713C1375.22 713 1394.97 732.755 1394.97 757.124L1394.97 1371.88C1394.97 1396.24 1375.22 1416 1350.85 1416L769.124 1416C744.755 1416 725 1396.24 725 1371.88Z" fill="url(#fill2)" fill-rule="evenodd"/><g filter="url(#fx1)" transform="translate(650 648)"><g><path d="M163.1 306.12 304.938 465.573 163.1 625.026 304.938 625.026 446.775 465.573 304.938 306.12ZM541.652 219.356 399.815 378.809 541.652 538.262 683.49 538.262 541.652 378.809 683.49 219.356ZM75.884 23.7228 763.562 23.7228C792.37 23.7228 815.723 47.0761 815.723 75.8839L815.723 763.562C815.723 792.37 792.37 815.723 763.562 815.723L75.884 815.723C47.0761 815.723 23.7228 792.37 23.7228 763.562L23.7228 75.8839C23.7228 47.0761 47.0761 23.7228 75.884 23.7228Z" fill="#FF0000" fill-rule="evenodd"/></g></g><path d="M803.377 944.397 945.215 1103.85 803.377 1263.3 945.215 1263.3 1087.05 1103.85 945.215 944.397ZM1181.93 857.633 1040.09 1017.09 1181.93 1176.54 1323.77 1176.54 1181.93 1017.09 1323.77 857.633ZM716.161 662 1403.84 662C1432.65 662 1456 685.353 1456 714.161L1456 1401.84C1456 1430.65 1432.65 1454 1403.84 1454L716.161 1454C687.353 1454 664 1430.65 664 1401.84L664 714.161C664 685.353 687.353 662 716.161 662Z" fill="url(#fill3)" fill-rule="evenodd"/></g></svg>