<svg width="2825" height="1108" xmlns="http://www.w3.org/2000/svg" xmlns:xlink="http://www.w3.org/1999/xlink" xml:space="preserve" overflow="hidden"><defs><filter id="fx0" x="-10%" y="-10%" width="120%" height="120%" filterUnits="userSpaceOnUse" primitiveUnits="userSpaceOnUse"><feComponentTransfer color-interpolation-filters="sRGB"><feFuncR type="discrete" tableValues="0 0"/><feFuncG type="discrete" tableValues="0 0"/><feFuncB type="discrete" tableValues="0 0"/><feFuncA type="linear" slope="0.411765" intercept="0"/></feComponentTransfer><feGaussianBlur stdDeviation="7.63889 7.63889"/></filter><filter id="fx1" x="-10%" y="-10%" width="120%" height="120%" filterUnits="userSpaceOnUse" primitiveUnits="userSpaceOnUse"><feComponentTransfer color-interpolation-filters="sRGB"><feFuncR type="discrete" tableValues="0 0"/><feFuncG type="discrete" tableValues="0 0"/><feFuncB type="discrete" tableValues="0 0"/><feFuncA type="linear" slope="0.411765" intercept="0"/></feComponentTransfer><feGaussianBlur stdDeviation="7.63889 7.63889"/></filter><radialGradient cx="1856433" cy="1947949" r="2690883" fy="1947949" gradientUnits="userSpaceOnUse" spreadMethod="pad" id="fill2" gradientTransform="matrix(0.000360892 0 0 0.000360892 534 764)"><stop offset="0" stop-color="#13501B"/><stop offset="0.09" stop-color="#13501B"/><stop offset="0.75" stop-color="#96DCF8"/><stop offset="1" stop-color="#96DCF8"/></radialGradient><radialGradient cx="2194560" cy="2194560" r="3103576" gradientUnits="userSpaceOnUse" spreadMethod="pad" id="fill3" gradientTransform="matrix(0.000360892 0 0 0.000360892 473 713)"><stop offset="0" stop-color="#084F6A"/><stop offset="0.75" stop-color="#0B3041"/><stop offset="1" stop-color="#0B3041"/></radialGradient></defs><g transform="translate(-459 -637)"><g filter="url(#fx0)" transform="translate(520 750)"><g><path d="M23.7225 67.8472C23.7225 43.478 43.4777 23.7229 67.8468 23.7229L649.571 23.7229C673.94 23.7229 693.695 43.478 693.695 67.8472L693.695 682.599C693.695 706.968 673.94 726.723 649.571 726.723L67.8468 726.723C43.4777 726.723 23.7225 706.968 23.7225 682.599Z" fill="#FF0000" fill-rule="evenodd"/></g></g><path d="M534 808.125C534 783.755 553.755 764 578.124 764L1159.85 764C1184.22 764 1203.97 783.755 1203.97 808.125L1203.97 1422.88C1203.97 1447.24 1184.22 1467 1159.85 1467L578.124 1467C553.755 1467 534 1447.24 534 1422.88Z" fill="url(#fill2)" fill-rule="evenodd"/><g filter="url(#fx1)" transform="translate(459 699)"><g><path d="M163.1 306.12 304.937 465.573 163.1 625.026 304.937 625.026 446.775 465.573 304.937 306.12ZM541.652 219.355 399.814 378.809 541.652 538.261 683.489 538.261 541.652 378.809 683.489 219.355ZM75.8839 23.7227 763.562 23.7227C792.369 23.7227 815.723 47.0759 815.723 75.8838L815.723 763.561C815.723 792.369 792.369 815.723 763.562 815.723L75.8839 815.723C47.076 815.723 23.7227 792.369 23.7227 763.561L23.7227 75.8838C23.7227 47.0759 47.076 23.7227 75.8839 23.7227Z" fill="#FF0000" fill-rule="evenodd"/></g></g><path d="M612.377 995.397 754.215 1154.85 612.377 1314.3 754.215 1314.3 896.052 1154.85 754.215 995.397ZM990.929 908.633 849.092 1068.09 990.929 1227.54 1132.77 1227.54 990.929 1068.09 1132.77 908.633ZM525.161 713 1212.84 713C1241.65 713 1265 736.353 1265 765.161L1265 1452.84C1265 1481.65 1241.65 1505 1212.84 1505L525.161 1505C496.353 1505 473 1481.65 473 1452.84L473 765.161C473 736.353 496.353 713 525.161 713Z" fill="url(#fill3)" fill-rule="evenodd"/><text font-family="Avenir Next LT Pro Demi,Avenir Next LT Pro Demi_MSFontService,sans-serif" font-weight="600" font-size="527" transform="matrix(1 0 0 1 1359.16 1298)">Cortex</text></g></svg>